<svg width="107" height="24" viewBox="0 0 107 24" fill="none" xmlns="http://www.w3.org/2000/svg">
<g clip-path="url(#clip0_3415_1744)">
<path d="M11.9692 23.2278C13.012 17.8806 13.5763 13.5824 11.3795 9.78678C13.5558 9.87137 16.4958 8.70526 17.645 6.53498C18.3821 5.02569 18.0522 3.26747 15.2512 2.92429C10.7209 2.36963 6.93255 4.28373 5.20212 5.72535C3.68195 6.99176 2.94483 9.46897 4.40578 9.80249L3.81488 11.4544C-1.71838 9.52577 -0.429018 6.71382 2.62823 4.30669C5.28187 2.21496 12.4416 -1.73771 19.7174 0.948555C27.0669 4.28615 19.8866 11.5051 15.2512 11.4544L20.3784 23.2278H11.9679H11.9692Z" fill="#27B3F4"/>
<path d="M6.10966 24L10.5626 7.1839H6.10966C5.62268 11.8568 3.61069 18.6468 0 24H6.10966Z" fill="#27B3F4"/>
<path d="M53.3616 16.3109L52.4384 23.2302H47.5951L49.5588 14.4681C49.6833 13.5099 49.6361 12.832 49.4186 12.4344C49.2023 12.038 48.8205 11.8399 48.2743 11.8399C47.8827 11.8399 47.4803 11.9559 47.0683 12.1879C46.655 12.4199 46.2587 12.7474 45.878 13.1691C45.4962 13.592 45.1457 14.102 44.8267 14.7001C44.5077 15.2983 44.2491 15.9629 44.0533 16.6952L42.9899 23.2314H37.1824C38.8983 17.4094 40.3846 11.8737 40.7677 7.23828H44.8811C45.3246 7.23828 45.6702 7.34704 45.9167 7.56334C46.081 7.70835 46.0871 7.93069 45.9324 8.23158L44.4654 11.6151C45.2593 10.501 45.7862 9.72637 46.5656 8.97233C47.4755 8.09262 48.8277 7.23949 49.8476 7.23949C55.1198 7.23949 53.8244 12.8307 53.8244 12.8307L53.3592 16.3121L53.3616 16.3109Z" fill="#27B3F4"/>
<path d="M62.8548 7.23709C61.3334 12.1613 60.0997 17.5568 59.1063 23.2302H53.9658C55.8014 17.5616 57.208 12.1794 57.9523 7.23709H62.8536H62.8548ZM61.1232 5.73505C60.8307 5.73505 60.5649 5.68308 60.3256 5.58037C60.0876 5.47766 59.8882 5.32782 59.7311 5.12964C59.5728 4.93267 59.4616 4.68616 59.3964 4.39493C59.3311 4.10371 59.3239 3.77019 59.3734 3.39559C59.4387 2.9086 59.5728 2.45908 59.7782 2.04339C59.9824 1.6277 60.235 1.26881 60.5298 0.965498C60.8259 0.663398 61.1546 0.426552 61.5183 0.25496C61.882 0.0845756 62.253 -0.0012207 62.6312 -0.0012207C62.9237 -0.0012207 63.1883 0.0507404 63.4264 0.153454C63.6632 0.256168 63.8602 0.407218 64.0173 0.607812C64.1756 0.807198 64.2867 1.05371 64.3532 1.34494C64.4209 1.63616 64.4293 1.96968 64.3786 2.34428C64.3145 2.82764 64.1804 3.27475 63.975 3.68923C63.7708 4.10371 63.5182 4.46139 63.2209 4.76349C62.9237 5.06559 62.5938 5.30244 62.2313 5.47645C61.8687 5.64804 61.499 5.73505 61.1207 5.73505H61.1232Z" fill="#27B3F4"/>
<path d="M86.699 10.6617C86.7219 11.5003 86.7376 11.7528 86.6132 12.7208L86.1842 23.1215H81.0183L82.3451 14.3594C82.4696 13.4011 82.6678 11.7311 81.0618 11.7311C78.8988 11.7311 77.8052 14.9056 76.3031 23.2278H72.1052C74.5945 13.2271 74.4772 11.8374 72.7855 11.8374C70.1463 11.8374 68.7603 15.9617 68.5633 16.6928L67.1398 23.229H61.6924C63.4083 17.4069 64.92 11.8181 65.3031 7.18268H69.4165C69.8599 7.18268 70.2056 7.29143 70.4521 7.50774C70.6164 7.65275 70.6212 7.87509 70.4678 8.17598L68.8521 11.574C69.6461 10.4599 70.4327 9.36142 71.2399 8.69076C72.2151 7.88113 73.5891 7.18268 75.5177 7.18268C77.4463 7.18268 78.4057 9.09678 78.1048 9.84236C78.0891 9.87861 77.6626 11.0121 77.6626 11.0121C77.6626 11.0121 79.3652 7.18268 82.8152 7.18268C86.2652 7.18268 86.6966 10.6617 86.6966 10.6617H86.699Z" fill="#27B3F4"/>
<path d="M102.652 4.07594C98.7589 2.00838 93.3175 4.63543 90.5007 9.94272C87.6839 15.2488 88.5576 21.228 92.451 23.2955C96.3445 25.3631 101.786 22.736 104.603 17.4287C107.419 12.1227 106.546 6.14351 102.652 4.07594ZM100.826 13.812C99.6688 16.7665 97.5517 18.5924 94.8026 17.4275C92.451 16.1793 93.222 12.7788 94.538 10.2992C95.8539 7.82077 97.791 6.82868 99.5927 7.35916C101.605 7.95007 102.203 10.2992 100.826 13.812Z" fill="#27B3F4"/>
<path d="M29.5563 22.4194C28.6718 23.0345 27.618 23.1879 26.5969 23.1879C25.9057 23.1879 24.9426 23.0768 24.3892 22.8085C23.837 22.5402 23.379 22.1463 23.0165 21.6291C22.6551 21.1131 22.399 20.4787 22.2503 19.7295C22.1005 18.9791 22.0896 18.1187 22.2177 17.1471L23.8055 7.1839H28.5823C28.9449 7.52708 29.0983 8.03703 28.9835 8.5228L26.9474 17.123C26.8302 18.0849 26.8809 18.7652 27.0996 19.1628C27.3171 19.5615 27.7135 19.7597 28.2887 19.7597C28.6718 19.7597 29.0681 19.6534 29.4778 19.4419C29.8874 19.2304 30.2813 18.9283 30.6572 18.5344C31.0354 18.1417 31.3858 17.6692 31.7109 17.1145C32.0347 16.5623 32.593 15.1207 32.8069 14.4379C33.4981 11.6791 34.1035 9.03758 34.1373 7.1839H38.7788C38.2229 9.1125 36.4853 15.4336 35.759 23.2302H30.7804L32.2752 18.1634C31.648 20.0993 30.9786 21.1759 29.5587 22.4206L29.5563 22.4194Z" fill="#27B3F4"/>
</g>
<defs>
<clipPath id="clip0_3415_1744">
<rect width="106.254" height="24" fill="white"/>
</clipPath>
</defs>
</svg>
